<svg width="42" height="42" viewBox="0 0 32 32" fill="none" xmlns="http://www.w3.org/2000/svg">
<g clip-path="url(#clip0_1278_36389)">
<path fill-rule="evenodd" clip-rule="evenodd" d="M13.7903 14.3206L17.6794 18.2097L10.6168 25.2722C10.3273 25.5617 9.94554 25.7406 9.53783 25.7776L6.78712 26.0277C6.56545 26.0478 6.34628 25.9685 6.18889 25.8111C6.0315 25.6537 5.95215 25.4345 5.9723 25.2129L6.22236 22.4622C6.25943 22.0544 6.43826 21.6726 6.72774 21.3832L13.7903 14.3206ZM13.7903 16.4419L7.7884 22.4438C7.74705 22.4852 7.7215 22.5397 7.7162 22.598L7.54762 24.4524L9.40202 24.2838C9.46027 24.2785 9.51481 24.2529 9.55617 24.2116L15.5581 18.2097L13.7903 16.4419Z" fill="#ffffff"/>
<path fill-rule="evenodd" clip-rule="evenodd" d="M20.331 11.669C20.0381 11.3761 20.0381 10.9012 20.331 10.6083L23.1595 7.77987C23.4523 7.48698 23.9272 7.48698 24.2201 7.77987C24.513 8.07276 24.513 8.54764 24.2201 8.84053L21.3917 11.669C21.0988 11.9618 20.6239 11.9618 20.331 11.669Z" fill="#ffffff"/>
<path fill-rule="evenodd" clip-rule="evenodd" d="M23.7682 14.5528C23.7682 14.1386 24.104 13.8028 24.5182 13.8028L28.5182 13.8028C28.9324 13.8028 29.2682 14.1386 29.2682 14.5528C29.2682 14.9671 28.9324 15.3028 28.5182 15.3028L24.5182 15.3028C24.104 15.3028 23.7682 14.9671 23.7682 14.5528Z" fill="#ffffff"/>
<path fill-rule="evenodd" clip-rule="evenodd" d="M18.74 19.581C18.3258 19.581 17.99 19.9168 17.99 20.331L17.99 24.331C17.99 24.7452 18.3258 25.081 18.74 25.081C19.1542 25.081 19.49 24.7452 19.49 24.331L19.49 20.331C19.49 19.9168 19.1542 19.581 18.74 19.581Z" fill="#ffffff"/>
<path fill-rule="evenodd" clip-rule="evenodd" d="M17.3258 2.61045C17.74 2.61045 18.0758 2.94624 18.0758 3.36045V7.36045C18.0758 7.77466 17.74 8.11045 17.3258 8.11045C16.9116 8.11045 16.5758 7.77466 16.5758 7.36045V3.36045C16.5758 2.94624 16.9116 2.61045 17.3258 2.61045Z" fill="#ffffff"/>
<path fill-rule="evenodd" clip-rule="evenodd" d="M6.67633 13.2599C6.67633 13.6742 7.01211 14.0099 7.42633 14.0099L11.4263 14.0099C11.8405 14.0099 12.1763 13.6742 12.1763 13.2599C12.1763 12.8457 11.8405 12.5099 11.4263 12.5099L7.42633 12.5099C7.01211 12.5099 6.67633 12.8457 6.67633 13.2599Z" fill="#ffffff"/>
<path fill-rule="evenodd" clip-rule="evenodd" d="M21.7452 17.6794C22.0381 17.3865 22.513 17.3865 22.8059 17.6794L25.6343 20.5078C25.9272 20.8007 25.9272 21.2756 25.6343 21.5685C25.3414 21.8613 24.8666 21.8613 24.5737 21.5685L21.7452 18.74C21.4523 18.4471 21.4523 17.9723 21.7452 17.6794Z" fill="#ffffff"/>
<path fill-rule="evenodd" clip-rule="evenodd" d="M10.4315 6.36566C10.7244 6.07276 11.1993 6.07276 11.4922 6.36566L14.3206 9.19408C14.6135 9.48698 14.6135 9.96185 14.3206 10.2547C14.0277 10.5476 13.5528 10.5476 13.26 10.2547L10.4315 7.42632C10.1386 7.13342 10.1386 6.65855 10.4315 6.36566Z" fill="#ffffff"/>
<path fill-rule="evenodd" clip-rule="evenodd" d="M16.9966 11.1143C17.3676 10.7433 17.9691 10.7433 18.3401 11.1143L20.8857 13.6599C21.2567 14.0309 21.2567 14.6324 20.8857 15.0034L18.3533 17.5357L14.4642 13.6466L16.9966 11.1143ZM17.6683 12.5639L16.5856 13.6466L18.3533 15.4144L19.4361 14.3317L17.6683 12.5639Z" fill="#ffffff"/>
<path d="M27.2253 23.1594C27.0301 23.3547 26.7135 23.3547 26.5182 23.1594C26.3229 22.9642 26.3229 22.6476 26.5182 22.4523C26.7135 22.2571 27.0301 22.2571 27.2253 22.4523C27.4206 22.6476 27.4206 22.9642 27.2253 23.1594Z" fill="#ffffff"/>
<path d="M9.54765 5.48177C9.35238 5.67703 9.0358 5.67703 8.84054 5.48177C8.64528 5.28651 8.64528 4.96993 8.84054 4.77466C9.0358 4.5794 9.35238 4.5794 9.54765 4.77466C9.74291 4.96993 9.74291 5.28651 9.54765 5.48177Z" fill="#ffffff"/>
<path d="M25.8111 6.89599C25.6158 7.09125 25.2993 7.09125 25.104 6.89599C24.9087 6.70072 24.9087 6.38414 25.104 6.18888C25.2993 5.99362 25.6158 5.99362 25.8111 6.18888C26.0064 6.38414 26.0064 6.70072 25.8111 6.89599Z" fill="#ffffff"/>
</g>
<defs>
<clipPath id="clip0_1278_36389">
<rect width="42" height="42" fill="black"/>
</clipPath>
</defs>
</svg>
